Coordinates
version=1
nRows=11
nColumns=63
inDegrees=yes

Units are S.I. units (second, meters, Newtons, ...)
If the header above contains a line with 'inDegrees', this indicates whether rotational values are in degrees (yes) or radians (no).

endheader
time	pelvis_tilt	pelvis_list	pelvis_rotation	pelvis_tx	pelvis_ty	pelvis_tz	hip_flexion_r	hip_adduction_r	hip_rotation_r	knee_angle_r	knee_angle_r_beta	ankle_angle_r	subtalar_angle_r	mtp_angle_r	hip_flexion_l	hip_adduction_l	hip_rotation_l	knee_angle_l	knee_angle_l_beta	ankle_angle_l	subtalar_angle_l	mtp_angle_l	L5_S1_Flex_Ext	L5_S1_Lat_Bending	L5_S1_axial_rotation	L4_L5_Flex_Ext	L4_L5_Lat_Bending	L4_L5_axial_rotation	L3_L4_Flex_Ext	L3_L4_Lat_Bending	L3_L4_axial_rotation	L2_L3_Flex_Ext	L2_L3_Lat_Bending	L2_L3_axial_rotation	L1_L2_Flex_Ext	L1_L2_Lat_Bending	L1_L2_axial_rotation	L1_T12_Flex_Ext	L1_T12_Lat_Bending	L1_T12_axial_rotation	Abs_r3	Abs_r2	Abs_r1	Abs_t1	Abs_t2	neck_flexion	neck_bending	neck_rotation	arm_flex_r	arm_add_r	arm_rot_r	elbow_flex_r	pro_sup_r	wrist_flex_r	wrist_dev_r	arm_flex_l	arm_add_l	arm_rot_l	elbow_flex_l	pro_sup_l	wrist_flex_l	wrist_dev_l
     11.40000000	    -42.01681704	      2.12485618	     -7.71491113	     -0.25337090	      1.03846108	      0.27011872	    113.58308454	     -4.24722917	      1.06923267	    118.98765101	      2.07672628	      8.63460367	     -5.07457290	      0.00000000	     73.87167949	     -8.40029765	      0.24391266	     40.12850608	      0.70037456	     -3.40179622	     -6.68978788	      0.00000000	     -0.03957097	     -0.22209678	      1.25237110	     -0.07348725	     -0.29538872	      1.33064429	     -0.06501115	     -0.54000612	      1.33064429	     -0.04522566	     -0.54000612	      1.09582471	     -0.03674560	     -0.45289976	      1.01755152	     -0.02261085	     -0.34402792	      0.93927832	     -0.28265149	     -2.51240323	      6.96531233	      0.00000000	      0.00000000	      0.00000000	      0.00000000	      0.00000000	     74.33162567	    -12.22295043	     34.30791708	     30.90046556	     41.78739493	      0.00000000	      5.00000014	     77.04165978	    -12.33388040	     31.51147834	     29.46287411	     48.82274813	      0.00000000	      5.00000014
     11.40800000	    -41.97289620	      2.05733510	     -7.69957264	     -0.25376200	      1.03837116	      0.27035513	    114.19457260	     -4.22782123	      0.83630557	    118.78147955	      2.07312791	      8.84263288	     -4.84803400	      0.00000000	     73.37702225	     -8.50702821	      0.24833093	     40.27413551	      0.70291627	     -3.54721289	     -6.30247218	      0.00000000	     -0.04811455	     -0.21285136	      1.26185578	     -0.08935352	     -0.28309230	      1.34072177	     -0.07904739	     -0.51752679	      1.34072177	     -0.05499011	     -0.51752679	      1.10412381	     -0.04467917	     -0.43404648	      1.02525782	     -0.02749265	     -0.32970675	      0.94639184	     -0.34367739	     -2.40781711	      7.01806329	      0.00000000	      0.00000000	      0.00000000	      0.00000000	      0.00000000	     74.33314637	    -12.31166117	     34.27347399	     31.17142466	     41.82818072	      0.00000000	      5.00000014	     77.01601365	    -12.40521412	     31.51136690	     29.75502228	     48.76927523	      0.00000000	      5.00000014
     11.41700000	    -42.05291367	      2.38767466	     -7.92034305	     -0.25461122	      1.03836849	      0.27111525	    114.92436565	     -3.82578733	      0.55651750	    118.36031436	      2.06577719	      9.29541939	     -6.00527703	      0.00000000	     73.08962591	     -8.59919145	     -0.22357474	     40.49659392	      0.70679890	     -5.43600822	     -8.38493771	      0.00000000	     -0.03904134	     -0.25757692	      1.32388868	     -0.07250367	     -0.34257731	      1.40663172	     -0.06414101	     -0.62627253	      1.40663172	     -0.04462034	     -0.62627253	      1.15840260	     -0.03625379	     -0.52525086	      1.07565955	     -0.02230822	     -0.39898665	      0.99291651	     -0.27886837	     -2.91376167	      7.36307168	      0.00000000	      0.00000000	      0.00000000	      0.00000000	      0.00000000	     74.29183607	    -12.08562355	     33.25330300	     30.95324262	     41.62063869	      0.00000000	      5.00000014	     77.49460494	    -12.41715252	     32.67300046	     29.29035048	     49.03974800	      0.00000000	      5.00000014
     11.42500000	    -42.06997123	      2.44036997	     -7.81851291	     -0.25506313	      1.03841961	      0.27102295	    115.49458960	     -3.88550192	      0.38933501	    117.87214234	      2.05725698	      9.46027024	     -6.01975719	      0.00000000	     72.71889534	     -8.54286460	     -0.33520091	     40.77612205	      0.71167759	     -5.52658331	     -8.39538714	      0.00000000	     -0.04047819	     -0.25927825	      1.32162713	     -0.07517205	     -0.34484007	      1.40422883	     -0.06650162	     -0.63040913	      1.40422883	     -0.04626253	     -0.63040913	      1.15642374	     -0.03758805	     -0.52872020	      1.07382204	     -0.02312924	     -0.40162200	      0.99122035	     -0.28913168	     -2.93300738	      7.35049362	      0.00000000	      0.00000000	      0.00000000	      0.00000000	      0.00000000	     74.36544267	    -12.09477158	     33.22918197	     30.96104537	     41.61670671	      0.00000000	      5.00000014	     77.51988586	    -12.37943158	     32.68801750	     29.27847243	     49.04326921	      0.00000000	      5.00000014
     11.43300000	    -42.11432662	      2.55168443	     -7.98025910	     -0.25572391	      1.03836791	      0.27149452	    116.00218064	     -3.59075184	      0.12138326	    117.25778216	      2.04653437	     10.06931107	     -6.23321899	      0.00000000	     72.72248902	     -8.87863771	     -1.07698306	     41.81151253	      0.72974856	     -5.98094380	     -8.57279031	      0.00000000	     -0.03908165	     -0.27555091	      1.36472152	     -0.07257853	     -0.36648272	      1.45001661	     -0.06420724	     -0.66997449	      1.45001661	     -0.04466642	     -0.66997449	      1.19413133	     -0.03629122	     -0.56190342	      1.10883623	     -0.02233126	     -0.42682837	      1.02354114	     -0.27915632	     -3.11708705	      7.59017166	      0.00000000	      0.00000000	      0.00000000	      0.00000000	      0.00000000	     74.40077956	    -12.09797156	     33.14087114	     30.97050100	     41.59859917	      0.00000000	      5.00000014	     77.72908453	    -12.31949237	     32.77930153	     29.15096398	     49.06889843	      0.00000000	      5.00000014
     11.44200000	    -42.18638315	      2.63412371	     -7.83618522	     -0.25629157	      1.03862574	      0.27129907	    116.48730750	     -3.67574603	     -0.03555332	    116.50197953	      2.03334313	     10.21439249	     -6.21098381	      0.00000000	     72.51282545	     -8.78645301	     -1.29932846	     42.28317626	      0.73798064	     -5.97664208	     -8.64318860	      0.00000000	     -0.04049741	     -0.28372955	      1.35317474	     -0.07520773	     -0.37736030	      1.43774816	     -0.06653319	     -0.68986003	      1.43774816	     -0.04628448	     -0.68986003	      1.18402790	     -0.03760589	     -0.57858130	      1.09945448	     -0.02314022	     -0.43949708	      1.01488106	     -0.28926892	     -3.20960544	      7.52595196	      0.00000000	      0.00000000	      0.00000000	      0.00000000	      0.00000000	     74.47119762	    -12.13146459	     33.10551306	     31.00647900	     41.59276458	      0.00000000	      5.00000014	     77.84558863	    -12.28569578	     32.80253399	     29.14137334	     49.07550652	      0.00000000	      5.00000014
     11.45000000	    -42.24013859	      2.78695213	     -7.84137537	     -0.25687274	      1.03848755	      0.27138036	    116.95267235	     -3.55531892	     -0.15531408	    115.76774444	      2.02052831	     10.64131960	     -6.20731881	      0.00000000	     72.74304338	     -8.97793381	     -2.07005411	     43.80009477	      0.76445587	     -5.99717095	     -8.76409544	      0.00000000	     -0.03846857	     -0.30312747	      1.36549445	     -0.07143999	     -0.40315954	      1.45083786	     -0.06320002	     -0.73702414	      1.45083786	     -0.04396573	     -0.73702414	      1.19480765	     -0.03572192	     -0.61813754	      1.10946424	     -0.02198094	     -0.46954445	      1.02412084	     -0.27477717	     -3.42903859	      7.59447051	      0.00000000	      0.00000000	      0.00000000	      0.00000000	      0.00000000	     74.48843888	    -12.17857449	     33.02606295	     31.15583704	     41.57703427	      0.00000000	      5.00000014	     78.05133151	    -12.26121048	     32.94270560	     29.02003859	     49.11075364	      0.00000000	      5.00000014
     11.45800000	    -42.31090685	      2.90081925	     -7.97482136	     -0.25746425	      1.03867179	      0.27157153	    117.28659579	     -3.36303238	     -0.35848554	    114.80249113	      2.00368146	     11.08278815	     -5.80630181	      0.00000000	     72.88914318	     -9.35998624	     -2.96809142	     45.13641815	      0.78777911	     -5.62291471	     -8.50715408	      0.00000000	     -0.03934931	     -0.31770659	      1.40790108	     -0.07307561	     -0.42254977	      1.49589490	     -0.06464699	     -0.77247181	      1.49589490	     -0.04497233	     -0.77247181	      1.23191345	     -0.03653977	     -0.64786728	      1.14391963	     -0.02248420	     -0.49212751	      1.05592581	     -0.28106821	     -3.59396052	      7.83032344	      0.00000000	      0.00000000	      0.00000000	      0.00000000	      0.00000000	     74.47574086	    -12.29502349	     32.83143476	     31.37531610	     41.53876880	      0.00000000	      5.00000014	     78.32378315	    -12.23600263	     33.49198947	     28.84530772	     49.23824210	      0.00000000	      5.00000014
     11.46700000	    -42.38461875	      3.06156720	     -7.67045218	     -0.25792384	      1.03872308	      0.27113698	    117.64411260	     -3.57115419	     -0.31399649	    113.87913048	      1.98756578	     11.24851575	     -5.67917322	      0.00000000	     73.20559117	     -9.19127105	     -3.26905490	     46.71003732	      0.81524394	     -5.41537061	     -8.36865776	      0.00000000	     -0.03888393	     -0.33763313	      1.35828126	     -0.07221135	     -0.44905206	      1.44317384	     -0.06388241	     -0.82092119	      1.44317384	     -0.04444044	     -0.82092119	      1.18849611	     -0.03610762	     -0.68850148	      1.10360353	     -0.02221828	     -0.52299372	      1.01871095	     -0.27774402	     -3.81937350	      7.55435291	      0.00000000	      0.00000000	      0.00000000	      0.00000000	      0.00000000	     74.50823662	    -12.32363990	     32.78007067	     31.48318357	     41.52913203	      0.00000000	      5.00000014	     78.47309520	    -12.27731966	     33.61238063	     28.84676510	     49.26762713	      0.00000000	      5.00000014
     11.47500000	    -42.45688460	      3.16066750	     -7.41248206	     -0.25828265	      1.03881513	      0.27075522	    117.88397430	     -3.76342688	     -0.32576210	    112.84606865	      1.96953545	     11.41879899	     -5.45427799	      0.00000000	     73.63991842	     -9.16355857	     -3.63544010	     48.54870599	      0.84733477	     -5.15227042	     -8.03415643	      0.00000000	     -0.03883389	     -0.35031672	      1.31538180	     -0.07211841	     -0.46592123	      1.39759316	     -0.06380019	     -0.85176006	      1.39759316	     -0.04438325	     -0.85176006	      1.15095908	     -0.03606115	     -0.71436585	      1.06874771	     -0.02218968	     -0.54264059	      0.98653635	     -0.27738658	     -3.96285276	      7.31575896	      0.00000000	      0.00000000	      0.00000000	      0.00000000	      0.00000000	     74.52712728	    -12.36952056	     32.72246254	     31.60948504	     41.52722017	      0.00000000	      5.00000014	     78.58398251	    -12.31749701	     33.73301055	     28.86298654	     49.28622892	      0.00000000	      5.00000014
     11.48300000	    -42.51439821	      3.24088634	     -7.16103867	     -0.25854684	      1.03891060	      0.27037593	    118.01868829	     -3.96976730	     -0.35636030	    111.72224675	      1.94992105	     11.52896769	     -5.27852787	      0.00000000	     74.14739582	     -9.18672907	     -4.00729116	     50.55312356	      0.88231845	     -4.91642574	     -7.68517653	      0.00000000	     -0.03810615	     -0.36067289	      1.27193064	     -0.07076694	     -0.47969494	      1.35142631	     -0.06260460	     -0.87694006	      1.35142631	     -0.04355152	     -0.87694006	      1.11293931	     -0.03538537	     -0.73548415	      1.03344365	     -0.02177386	     -0.55868230	      0.95394798	     -0.27218844	     -4.08000383	      7.07409665	      0.00000000	      0.00000000	      0.00000000	      0.00000000	      0.00000000	     74.54819888	    -12.39713182	     32.66263012	     31.68716562	     41.51630624	      0.00000000	      5.00000014	     78.66797758	    -12.34965119	     33.83498318	     28.84176415	     49.31077777	      0.00000000	      5.00000014
